<?xml version="1.0"?><svg width="800" height="800" xmlns="http://www.w3.org/2000/svg" xmlns:xlink="http://www.w3.org/1999/xlink">

 <g>
  <title>Layer 1</title>
  <g id="svg_1">
   <rect fill="#ffffff" fill-rule="evenodd" stroke-width="1px" stroke-miterlimit="4" stroke-dashoffset="0" id="rect2499" y="-0.000001" x="-0.000008" height="100" width="100"/>
   <use xlink:href="#rect2499" height="1052.3622" width="744.09448" y="200" x="0" id="use2959"/>
   <use xlink:href="#rect2499" height="1052.3622" width="744.09448" y="400" x="0" id="use2963"/>
   <use xlink:href="#rect2499" height="1052.3622" width="744.09448" y="600" x="0" id="use2967"/>
   <use xlink:href="#rect2499" height="1052.3622" width="744.09448" y="100" x="100" id="use2973"/>
   <use xlink:href="#rect2499" height="1052.3622" width="744.09448" y="300" x="100" id="use2977"/>
   <use xlink:href="#rect2499" height="1052.3622" width="744.09448" y="500" x="100" id="use2981"/>
   <use xlink:href="#rect2499" height="1052.3622" width="744.09448" y="700" x="100" id="use2985"/>
   <use xlink:href="#rect2499" height="1052.3622" width="744.09448" y="0" x="200" id="use2987"/>
   <use xlink:href="#rect2499" height="1052.3622" width="744.09448" y="200" x="200" id="use2991"/>
   <use xlink:href="#rect2499" height="1052.3622" width="744.09448" y="400" x="200" id="use2995"/>
   <use xlink:href="#rect2499" height="1052.3622" width="744.09448" y="600" x="200" id="use2999"/>
   <use xlink:href="#rect2499" height="1052.3622" width="744.09448" y="100" x="300" id="use3005"/>
   <use xlink:href="#rect2499" height="1052.3622" width="744.09448" y="300" x="300" id="use3009"/>
   <use xlink:href="#rect2499" height="1052.3622" width="744.09448" y="500" x="300" id="use3013"/>
   <use xlink:href="#rect2499" height="1052.3622" width="744.09448" y="700" x="300" id="use3017"/>
   <use xlink:href="#rect2499" height="1052.3622" width="744.09448" y="0" x="400" id="use3019"/>
   <use xlink:href="#rect2499" height="1052.3622" width="744.09448" y="200" x="400" id="use3023"/>
   <use xlink:href="#rect2499" height="1052.3622" width="744.09448" y="400" x="400" id="use3027"/>
   <use xlink:href="#rect2499" height="1052.3622" width="744.09448" y="600" x="400" id="use3031"/>
   <use xlink:href="#rect2499" height="1052.3622" width="744.09448" y="100" x="500" id="use3037"/>
   <use xlink:href="#rect2499" height="1052.3622" width="744.09448" y="300" x="500" id="use3041"/>
   <use xlink:href="#rect2499" height="1052.3622" width="744.09448" y="500" x="500" id="use3045"/>
   <use xlink:href="#rect2499" height="1052.3622" width="744.09448" y="700" x="500" id="use3049"/>
   <use xlink:href="#rect2499" height="1052.3622" width="744.09448" y="0" x="600" id="use3051"/>
   <use xlink:href="#rect2499" height="1052.3622" width="744.09448" y="200" x="600" id="use3055"/>
   <use xlink:href="#rect2499" height="1052.3622" width="744.09448" y="400" x="600" id="use3059"/>
   <use xlink:href="#rect2499" height="1052.3622" width="744.09448" y="600" x="600" id="use3063"/>
   <use xlink:href="#rect2499" height="1052.3622" width="744.09448" y="100" x="700" id="use3069"/>
   <use xlink:href="#rect2499" height="1052.3622" width="744.09448" y="300" x="700" id="use3073"/>
   <use xlink:href="#rect2499" height="1052.3622" width="744.09448" y="500" x="700" id="use3077"/>
   <use xlink:href="#rect2499" height="1052.3622" width="744.09448" y="700" x="700" id="use3081"/>
   <rect fill="#666666" fill-rule="evenodd" stroke-width="1px" stroke-miterlimit="4" stroke-dashoffset="0" id="rect2497" y="-0.000001" x="100.000002" height="100" width="100"/>
   <use xlink:href="#rect2497" height="1052.3622" width="744.09448" y="100" x="-100" id="use3087"/>
   <use xlink:href="#rect2497" height="1052.3622" width="744.09448" y="300" x="-100" id="use3091"/>
   <use xlink:href="#rect2497" height="1052.3622" width="744.09448" y="500" x="-100" id="use3095"/>
   <use xlink:href="#rect2497" height="1052.3622" width="744.09448" y="700" x="-100" id="use3099"/>
   <use xlink:href="#rect2497" height="1052.3622" width="744.09448" y="200" x="0" id="use3105"/>
   <use fill="#000000" xlink:href="#rect2497" height="1052.3622" width="744.09448" y="400" x="0" id="use3109"/>
   <use xlink:href="#rect2497" height="1052.3622" width="744.09448" y="600" x="0" id="use3113"/>
   <use xlink:href="#rect2497" height="1052.3622" width="744.09448" y="100" x="100" id="use3119"/>
   <use xlink:href="#rect2497" height="1052.3622" width="744.09448" y="300" x="100" id="use3123"/>
   <use fill="#000000" xlink:href="#rect2497" height="1052.3622" width="744.09448" y="500" x="100" id="use3127"/>
   <use xlink:href="#rect2497" height="1052.3622" width="744.09448" y="700" x="100" id="use3131"/>
   <use xlink:href="#rect2497" height="1052.3622" width="744.09448" y="0" x="200" id="use3133"/>
   <use xlink:href="#rect2497" height="1052.3622" width="744.09448" y="200" x="200" id="use3137"/>
   <use xlink:href="#rect2497" height="1052.3622" width="744.09448" y="400" x="200" id="use3141"/>
   <use xlink:href="#rect2497" height="1052.3622" width="744.09448" y="600" x="200" id="use3145"/>
   <use fill="#000000" xlink:href="#rect2497" height="1052.3622" width="744.09448" y="100" x="300" id="use3151"/>
   <use xlink:href="#rect2497" height="1052.3622" width="744.09448" y="300" x="300" id="use3155"/>
   <use xlink:href="#rect2497" height="1052.3622" width="744.09448" y="500" x="300" id="use3159"/>
   <use xlink:href="#rect2497" height="1052.3622" width="744.09448" y="700" x="300" id="use3163"/>
   <use xlink:href="#rect2497" height="1052.3622" width="744.09448" y="0" x="400" id="use3165"/>
   <use xlink:href="#rect2497" height="1052.3622" width="744.09448" y="200" x="400" id="use3169"/>
   <use xlink:href="#rect2497" height="1052.3622" width="744.09448" y="400" x="400" id="use3173"/>
   <use xlink:href="#rect2497" height="1052.3622" width="744.09448" y="600" x="400" id="use3177"/>
   <use xlink:href="#rect2497" height="1052.3622" width="744.09448" y="100" x="500" id="use3183"/>
   <use xlink:href="#rect2497" height="1052.3622" width="744.09448" y="300" x="500" id="use3187"/>
   <use xlink:href="#rect2497" height="1052.3622" width="744.09448" y="500" x="500" id="use3191"/>
   <use xlink:href="#rect2497" height="1052.3622" width="744.09448" y="700" x="500" id="use3195"/>
   <use xlink:href="#rect2497" height="1052.3622" width="744.09448" y="0" x="600" id="use3197"/>
   <use xlink:href="#rect2497" height="1052.3622" width="744.09448" y="200" x="600" id="use3201"/>
   <use xlink:href="#rect2497" height="1052.3622" width="744.09448" y="400" x="600" id="use3205"/>
   <use xlink:href="#rect2497" height="1052.3622" width="744.09448" y="600" x="600" id="use3209"/>
  </g>
 </g>
</svg>